# xmcd CD database file
#
# Track frame offsets:
#	150
#	29767
#	50530
#	65442
#	71542
#	84592
#	90810
#	108017
#	122567
#	134230
#	151092
#
# Disc length: 2503 seconds
#
# Revision: 0
# Processed by: cddbd v1.5.1PL0 Copyright (c) Steve Scherf et al.
# Submitted via: CDex 1.51
#
DISCID=8c09c50b
DTITLE=Robert Julian Horky - Ios
DYEAR=1987
DGENRE=New Age
TTITLE0=The Island
TTITLE1=Under Water Land
TTITLE2=View
TTITLE3=Calling
TTITLE4=Beware
TTITLE5=Blue Moon
TTITLE6=Asia
TTITLE7=Allusions
TTITLE8=Wind Birds
TTITLE9=Lost in Poseidon's Hair
TTITLE10=Waves
EXTD=YEAR: 1987
EXTT0=
EXTT1=
EXTT2=
EXTT3=
EXTT4=
EXTT5=
EXTT6=
EXTT7=
EXTT8=
EXTT9=
EXTT10=
PLAYORDER=
